HIERARCHY
ROOT ui
{
	 OFFSET 0 0 0
	 CHANNELS 3 XPosition YPosition Z Position
	 EndSite
	 {
	 OFFSET 0 -1 0
	 }
}
ROOT li
{
	 OFFSET 0 0 0
	 CHANNELS 3 XPosition YPosition Z Position
	 EndSite
	 {
	 OFFSET 0 -1 0
	 }
}
ROOT ul
{
	 OFFSET 0 0 0
	 CHANNELS 3 XPosition YPosition Z Position
	 EndSite
	 {
	 OFFSET 0 -1 0
	 }
}
ROOT ll
{
	 OFFSET 0 0 0
	 CHANNELS 3 XPosition YPosition Z Position
	 EndSite
	 {
	 OFFSET 0 -1 0
	 }
}
ROOT tt
{
	 OFFSET 0 0 0
	 CHANNELS 3 XPosition YPosition Z Position
	 EndSite
	 {
	 OFFSET 0 -1 0
	 }
}
ROOT tb
{
	 OFFSET 0 0 0
	 CHANNELS 3 XPosition YPosition Z Position
	 EndSite
	 {
	 OFFSET 0 -1 0
	 }
}
ROOT td
{
	 OFFSET 0 0 0
	 CHANNELS 3 XPosition YPosition Z Position
	 EndSite
	 {
	 OFFSET 0 -1 0
	 }
}
ROOT v
{
	 OFFSET 0 0 0
	 CHANNELS 3 XPosition YPosition Z Position
	 EndSite
	 {
	 OFFSET 0 -1 0
	 }
}
ROOT bn
{
	 OFFSET 0 0 0
	 CHANNELS 3 XPosition YPosition Z Position
	 EndSite
	 {
	 OFFSET 0 -1 0
	 }
}
MOTION
Frames: 32
Frame Time: 0.002
-0.04749785614013672	0.002567085027694702	0		0.5204068603515625	-2.65969775390625	0		-0.94863232421875	0.15768218994140626	0		-0.5233479614257812	-2.789778076171875	0		2.629045166015625	-1.4956424560546875	0		3.933931884765625	-0.6380319213867187	0		5.16365576171875	-0.31086642456054686	0		6.0522802734375	0.47496746826171876	0		-0.13698806762695312	5.909169921875	0		
0.03457501220703125	0.0019853320121765135	0		0.5505137329101563	-2.65997802734375	0		-0.8665443725585937	0.16008917236328124	0		-0.55317626953125	-2.77873193359375	0		2.63115478515625	-1.492738037109375	0		3.9401328125	-0.6171342163085938	0		5.17080517578125	-0.29796142578125	0		6.04839404296875	0.4829483642578125	0		-0.10295398712158203	5.9148583984375	0		
-0.030380128860473633	0.001271967053413391	0		0.5355852661132813	-2.66096875	0		-0.8664965209960938	0.15999917602539063	0		-0.5160082397460938	-2.763028076171875	0		2.618310302734375	-1.47671875	0		3.94516015625	-0.6222027587890625	0		5.18589013671875	-0.29207595825195315	0		6.0564384765625	0.4828846435546875	0		-0.10296561431884765	5.9147763671875	0		
0.04268610000610352	0.008815604209899902	0		0.5826452026367187	-2.658273681640625	0		-0.8664755859375	0.15994810485839844	0		-0.5208845825195313	-2.74904833984375	0		2.623384033203125	-1.4697698974609374	0		3.951305908203125	-0.6012491455078125	0		5.18995263671875	-0.2851024475097656	0		6.05645703125	0.48288946533203125	0		-0.10299112701416016	5.9147314453125	0		
-0.04735997772216797	0.0023163490295410156	0		0.5806407470703125	-2.66026611328125	0		-0.8705013427734375	0.1569589385986328	0		-0.4538388977050781	-2.742435791015625	0		2.62338427734375	-1.4697623291015625	0		3.937301513671875	-0.6011552124023437	0		5.18499072265625	-0.2770535888671875	0		6.0564462890625	0.48291619873046876	0		-0.17309291076660155	5.90411865234375	0		
-0.010452065467834473	-0.006862727165222168	0		0.552619140625	-2.658077392578125	0		-0.8755650024414062	0.15301411437988283	0		-0.5197920532226562	-2.7280361328125	0		2.6263701171875	-1.4657425537109374	0		3.940296142578125	-0.5951317138671876	0		5.18898388671875	-0.2710328369140625	0		6.05640380859375	0.4829625854492188	0		-0.1371226806640625	5.90894482421875	0		
-0.016451669692993165	0.006235319137573242	0		0.5565744018554688	-2.653035400390625	0		-0.8696661987304688	0.14804481506347655	0		-0.5207578735351562	-2.70896630859375	0		2.63133642578125	-1.458706298828125	0		3.97318896484375	-0.6012530517578125	0		5.19295068359375	-0.26399090576171874	0		6.0612861328125	0.4749991455078125	0		-0.13521270751953124	5.905998046875	0		
0.05543490219116211	0.003927697896957397	0		0.5345176391601563	-2.64381494140625	0		-0.865744384765625	0.15212258911132812	0		-0.5147249755859375	-2.683901123046875	0		2.639293701171875	-1.44766015625	0		3.953295166015625	-0.5640529174804687	0		5.19596728515625	-0.24292277526855469	0		6.0612763671875	0.49108154296875	0		-0.10225404357910156	5.91391064453125	0		
3.102230131626129E-4	0.004367728233337403	0		0.5873388061523438	-2.650986328125	0		-0.8808859252929687	0.14934149169921876	0		-0.5197846069335937	-2.66974072265625	0		2.6211669921875	-1.4464415283203125	0		3.944020263671875	-0.5898909912109375	0		5.19876806640625	-0.25583389282226565	0		6.05610791015625	0.4832102661132813	0		-0.1023507308959961	5.914041015625	0		
-0.016828525543212892	0.006622688770294189	0		0.5112783508300781	-2.631402587890625	0		-0.8850577392578125	0.14552931213378906	0		-0.519846435546875	-2.650578369140625	0		2.632045654296875	-1.4393631591796876	0		3.95896728515625	-0.5718447875976562	0		5.18670166015625	-0.24064254760742188	0		6.051916015625	0.475349365234375	0		-0.10245948028564453	5.91420068359375	0		
-0.006102274894714355	-0.010255094528198241	0		0.576002197265625	-2.6445908203125	0		-0.89522802734375	0.14677801513671876	0		-0.5229519653320313	-2.633372802734375	0		2.613861083984375	-1.4381014404296875	0		3.978739013671875	-0.5798101196289063	0		5.1905576171875	-0.2345269775390625	0		6.0517431640625	0.4754778747558594	0		-0.13761605834960938	5.90858349609375	0		
-0.011285261154174804	-0.00602177381515503	0		0.5258296508789062	-2.633109130859375	0		-0.8904603881835937	0.14196488952636718	0		-0.51905712890625	-2.610184814453125	0		2.621701171875	-1.4269718017578126	0		3.9616630859375	-0.5555543823242187	0		5.19035107421875	-0.23437869262695313	0		6.055587890625	0.48359130859375	0		-0.1717880401611328	5.90298291015625	0		
-0.013426722526550293	0.010211973190307618	0		0.5575728149414062	-2.631075439453125	0		-0.8906908569335937	0.14219935607910156	0		-0.5361026611328125	-2.570859375	0		2.62144970703125	-1.4267845458984374	0		3.95833251953125	-0.5713677978515626	0		5.19516259765625	-0.2262518310546875	0		6.0553623046875	0.483732421875	0		-0.1369132080078125	5.9080087890625	0		
2.4409699440002442E-4	-0.0026302878856658937	0		0.5292954711914063	-2.627687255859375	0		-0.9009378662109375	0.14350689697265626	0		-0.48834613037109376	-2.561887939453125	0		2.621173095703125	-1.4265870361328126	0		3.964188232421875	-0.5502251586914062	0		5.19490673828125	-0.22609036254882814	0		6.05106884765625	0.4759007263183594	0		-0.102045166015625	5.914048828125	0		
-0.008021645545959473	-0.0013360459804534913	0		0.5749974365234375	-2.62471044921875	0		-0.9052813110351563	0.130793212890625	0		-0.5334815673828125	-2.530374755859375	0		2.6119013671875	-1.4223299560546876	0		3.96683349609375	-0.5630582275390625	0		5.2056337890625	-0.2259861602783203	0		6.05080517578125	0.47605056762695314	0		-0.10321449279785157	5.9153046875	0		
-0.021272836685180666	0.003995086908340454	0		0.5487018432617188	-2.619314697265625	0		-0.8285603637695312	0.13062388610839842	0		-0.4546970825195312	-2.511562255859375	0		2.60655712890625	-1.4290889892578125	0		3.949624267578125	-0.54877197265625	0		5.2024267578125	-0.2127977752685547	0		6.0544873046875	0.468181396484375	0		-0.10140537261962891	5.91355126953125	0		
0.04637242126464844	-0.009134038925170899	0		0.5603427124023438	-2.6251318359375	0		-0.89985888671875	0.1273076858520508	0		-0.5019326782226563	-2.496023193359375	0		2.5792421875	-1.4307178955078126	0		3.970226318359375	-0.5676997680664062	0		5.1992275390625	-0.1986064910888672	0		6.05430859375	0.4843371276855469	0		-0.16966093444824218	5.90020556640625	0		
0.003167642116546631	0.0023755950927734377	0		0.5581262817382813	-2.60786767578125	0		-0.8241266479492187	0.1271478271484375	0		-0.5030372924804688	-2.45974658203125	0		2.578948486328125	-1.4305001220703124	0		3.956114990234375	-0.5384259643554687	0		5.20995751953125	-0.1984942626953125	0		6.067001953125	0.4764195861816406	0		-0.10075316619873047	5.9130732421875	0		
-0.009101869583129883	-2.934669852256775E-4	0		0.5488758544921875	-2.599563720703125	0		-0.9063524169921875	0.13189756774902345	0		-0.5042333068847656	-2.442470947265625	0		2.548683837890625	-1.428109130859375	0		3.940749755859375	-0.5561448364257813	0		5.18971044921875	-0.19720248413085936	0		6.05380419921875	0.48465274047851564	0		-0.10189895629882813	5.91434228515625	0		
-0.001339974045753479	-0.0010816099643707275	0		0.5646242065429687	-2.595407470703125	0		-0.8346068115234375	0.1277529525756836	0		-0.5033951416015625	-2.423210693359375	0		2.55442236328125	-1.4289273681640624	0		3.940508544921875	-0.5559510498046875	0		5.18544287109375	-0.20300250244140625	0		6.04548681640625	0.46885870361328125	0		-0.10302881622314453	5.915607421875	0		
-0.008588476181030274	-0.0077882461547851565	0		0.5104180297851563	-2.587849609375	0		-0.9108114624023438	0.128460205078125	0		-0.5005123901367188	-2.40096826171875	0		2.521140869140625	-1.43752197265625	0		3.95119873046875	-0.5718226928710938	0		5.18523388671875	-0.2028265380859375	0		6.0493330078125	0.47699502563476565	0		-0.10215172576904297	5.91485595703125	0		
0.04427803039550781	1.4822599291801453E-4	0		0.5402013549804687	-2.587786376953125	0		-0.8290134887695313	0.1242407684326172	0		-0.4896561584472656	-2.388780029296875	0		2.520941162109375	-1.437312744140625	0		3.9481513671875	-0.5476168212890625	0		5.1841357421875	-0.18864697265625	0		6.05320703125	0.4851302795410156	0		-0.13628628540039062	5.90830126953125	0		
-0.0018745440244674683	-3.4601300954818727E-4	0		0.5160606689453126	-2.580416015625	0		-0.9071112670898438	0.13294496154785157	0		-0.517770751953125	-2.37737255859375	0		2.5207744140625	-1.4371087646484375	0		3.922862548828125	-0.570285400390625	0		5.17299365234375	-0.18741152954101561	0		6.05306591796875	0.4852872314453125	0		-0.1373492431640625	5.90954638671875	0		
-0.0019911179542541502	-1.1646199971437454E-4	0		0.5718822021484375	-2.5855205078125	0		-0.8302275390625	0.1327348175048828	0		-0.4838409423828125	-2.3643359375	0		2.47861767578125	-1.4406641845703125	0		3.93579736328125	-0.5601802368164063	0		5.171759765625	-0.20723680114746093	0		6.05295556640625	0.4854425354003906	0		-0.10235880279541015	5.91557275390625	0		
-0.038072643280029295	0.0013160899877548218	0		0.5157957153320313	-2.57997705078125	0		-0.83533740234375	0.12899482727050782	0		-0.49189645385742187	-2.3540625	0		2.47044921875	-1.4514232177734374	0		3.912551025390625	-0.5858672485351563	0		5.16671826171875	-0.19904148864746093	0		6.048826171875	0.4776202392578125	0		-0.10337517547607422	5.91680078125	0		
0.044818386077880856	-0.006957869052886963	0		0.5696616821289062	-2.588086181640625	0		-0.835396728515625	0.12921629333496093	0		-0.4899685668945313	-2.351856201171875	0		2.468350830078125	-1.45522265625	0		3.89946728515625	-0.5886163940429687	0		5.1626162109375	-0.2058538360595703	0		6.05281689453125	0.4857499084472656	0		-0.13741767883300782	5.91021484375	0		
-0.03721291732788086	-0.006270330905914306	0		0.5196781005859376	-2.575591796875	0		-0.9014271240234375	0.12981732177734376	0		-0.47302783203125	-2.35274658203125	0		2.432235595703125	-1.4668265380859375	0		3.909352783203125	-0.60150341796875	0		5.1625830078125	-0.20569145202636718	0		6.0616943359375	0.46985015869140623	0		-0.10137618255615234	5.9142099609375	0		
0.05583963012695312	0.0033807709217071533	0		0.5806648559570312	-2.573756103515625	0		-0.8163910522460938	0.13652204895019532	0		-0.4639913330078125	-2.34259716796875	0		2.42526708984375	-1.458604736328125	0		3.8934677734375	-0.58023974609375	0		5.1695361328125	-0.2125706787109375	0		6.057740234375	0.47802728271484374	0		-0.10133086395263671	5.9154091796875	0		
-0.029154998779296875	0.0010763369798660277	0		0.5236888427734375	-2.57022900390625	0		-0.8213390502929687	0.14175115966796875	0		-0.46398458862304687	-2.342399658203125	0		2.39826806640625	-1.4602662353515625	0		3.86530908203125	-0.6099041748046875	0		5.1565341796875	-0.2163308563232422	0		6.05281201171875	0.4862127990722656	0		-0.1382947998046875	5.91182275390625	0		
0.04086980056762695	-0.0021443359851837157	0		0.5567595825195313	-2.563234375	0		-0.826318115234375	0.13797747802734375	0		-0.5009408874511718	-2.339986572265625	0		2.3912392578125	-1.471045166015625	0		3.85333203125	-0.6126614990234375	0		5.1385009765625	-0.22905842590332032	0		6.0488115234375	0.4783966674804688	0		-0.10318476867675781	5.91780908203125	0		
-0.03709286880493164	-0.00549120807647705	0		0.510784912109375	-2.566772705078125	0		-0.8922567138671875	0.13856352233886718	0		-0.4639042053222656	-2.342010498046875	0		2.380209716796875	-1.4847982177734376	0		3.85531201171875	-0.6254979248046875	0		5.13451904296875	-0.23586434936523437	0		6.048873046875	0.47856201171875	0		-0.10309866333007812	5.918001953125	0		
0.044973636627197264	-0.005780581951141357	0		0.51387255859375	-2.56159716796875	0		-0.8831470336914062	0.1457088623046875	0		-0.5179093017578125	-2.352493896484375	0		2.304302978515625	-1.479162841796875	0		3.84044287109375	-0.61422900390625	0		5.13055126953125	-0.24166427612304686	0		6.044990234375	0.486757568359375	0		-0.1020139389038086	5.91719189453125	0		
